<?xml version="1.0" standalone="no"?><!DOCTYPE svg PUBLIC "-//W3C//DTD SVG 1.1//EN" "http://www.w3.org/Graphics/SVG/1.1/DTD/svg11.dtd"><svg t="1651040700523" class="icon" viewBox="0 0 1158 1024" version="1.1" xmlns="http://www.w3.org/2000/svg" p-id="6504" xmlns:xlink="http://www.w3.org/1999/xlink" width="226.171875" height="200"><defs><style type="text/css">@font-face { font-family: feedback-iconfont; src: url("//at.alicdn.com/t/font_1031158_u69w8yhxdu.woff2?t=1630033759944") format("woff2"), url("//at.alicdn.com/t/font_1031158_u69w8yhxdu.woff?t=1630033759944") format("woff"), url("//at.alicdn.com/t/font_1031158_u69w8yhxdu.ttf?t=1630033759944") format("truetype"); }
</style></defs><path d="M431.104 588.126316c16.707368 0 30.908632 12.261053 33.306947 28.806737 7.545263 51.469474 51.280842 91.055158 101.48379 91.055158 49.394526 0 93.264842-39.962947 101.295158-91.351579a33.684211 33.684211 0 0 1 29.749894-28.348632l3.503158-0.161684h380.442948v67.368421l-354.088421-0.026948-0.808421 2.586948c-23.04 65.913263-83.590737 114.364632-153.70779 117.167158l-6.386526 0.134737c-73.512421 0-137.296842-49.205895-160.606316-117.436632l-0.781474-2.452211H52.412632v-67.368421h378.691368zM810.846316 183.969684c17.461895 0 31.797895 13.258105 33.522526 30.234948l0.188632 3.449263v103.073684h-67.368421l-0.026948-69.416421H354.627368v69.443368h-67.368421V217.653895c0-17.434947 13.258105-31.797895 30.261895-33.522527l3.422316-0.161684h489.903158zM764.227368 21.611789c17.434947 0 31.770947 13.231158 33.495579 30.234948l0.161685 3.449263v79.521684h-67.368421V88.953263H401.273263v45.891369h-67.368421V55.296c0-17.461895 13.258105-31.797895 30.234947-33.522526l3.449264-0.161685H764.227368zM870.076632 371.092211c17.461895 0 31.797895 13.258105 33.522526 30.234947l0.161684 3.449263v133.685895h-67.368421v-100.001684H295.397053v99.974736h-67.368421v-133.658947c0-17.434947 13.258105-31.797895 30.261894-33.495579l3.422316-0.188631h608.36379z" fill="#5AC2EE" p-id="6505"></path><path d="M928.875789 117.867789a33.684211 33.684211 0 0 1 41.552843 17.650527l1.293473 3.179789 164.944842 477.534316c0.808421 2.371368 1.374316 4.796632 1.64379 7.27579l0.215579 3.718736v360.825264a33.684211 33.684211 0 0 1-30.234948 33.522526l-3.449263 0.188631H50.903579a33.684211 33.684211 0 0 1-33.522526-30.261894l-0.161685-3.422316v-360.825263c0-2.506105 0.269474-5.012211 0.808421-7.437474l1.024-3.584L184.050526 138.725053a33.684211 33.684211 0 0 1 64.61979 18.674526l-0.943158 3.314526-163.139369 472.198737v321.455158H1071.157895V632.912842L908.045474 160.714105a33.684211 33.684211 0 0 1 17.650526-41.552842l3.206737-1.293474z" fill="#5AC2EE" p-id="6506"></path></svg>