<?xml version="1.0" standalone="no"?><!DOCTYPE svg PUBLIC "-//W3C//DTD SVG 1.1//EN" "http://www.w3.org/Graphics/SVG/1.1/DTD/svg11.dtd"><svg t="1655289576099" class="icon" viewBox="0 0 1024 1024" version="1.1" xmlns="http://www.w3.org/2000/svg" p-id="21151" xmlns:xlink="http://www.w3.org/1999/xlink" width="48" height="48"><defs><style type="text/css">@font-face { font-family: feedback-iconfont; src: url("//at.alicdn.com/t/font_1031158_u69w8yhxdu.woff2?t=1630033759944") format("woff2"), url("//at.alicdn.com/t/font_1031158_u69w8yhxdu.woff?t=1630033759944") format("woff"), url("//at.alicdn.com/t/font_1031158_u69w8yhxdu.ttf?t=1630033759944") format("truetype"); }
</style></defs><path d="M511.332 872.361l-2.599-4.505c-0.6-1.039-60.645-105.313-119.914-224.419-79.72-160.202-120.141-269.501-120.141-324.86 0-64.815 25.24-125.751 71.072-171.583 45.831-45.831 106.767-71.071 171.582-71.071s125.751 25.24 171.582 71.071c45.832 45.832 71.072 106.768 71.072 171.583 0 55.359-40.421 164.658-120.141 324.86-59.269 119.105-119.314 223.38-119.914 224.419l-2.599 4.505z m0-790.438c-130.491 0-236.654 106.163-236.654 236.654 0 53.653 41.322 165.056 119.5 322.162 52.197 104.896 104.999 198.274 117.154 219.58 12.155-21.306 64.957-114.684 117.154-219.58 78.178-157.106 119.5-268.509 119.5-322.162 0-130.491-106.163-236.654-236.654-236.654z" p-id="21152" fill="#1afa29"></path><path d="M511.332 507.431c-106.832 0-193.745-86.913-193.745-193.744S404.5 119.941 511.332 119.941c106.831 0 193.745 86.914 193.745 193.745s-86.914 193.745-193.745 193.745z m0-381.49c-103.523 0-187.745 84.222-187.745 187.745 0 103.522 84.222 187.744 187.745 187.744s187.745-84.222 187.745-187.744c0-103.523-84.222-187.745-187.745-187.745zM529.81 948.092c-6.719 0-13.467-0.059-20.251-0.175-90.729-1.564-175.888-13.47-239.787-33.521-65.013-20.401-100.55-47.127-100.065-75.253 0.845-49.073 112.255-88.533 270.929-95.96 2.485-0.115 4.979-0.224 7.483-0.324l0.239 5.996c-2.49 0.099-4.972 0.207-7.443 0.322-74.155 3.471-141.658 14.509-190.073 31.08-48.081 16.457-74.765 37.407-75.136 58.989-0.429 24.868 34.512 50.172 95.863 69.425 63.367 19.885 147.923 31.691 238.094 33.246 90.166 1.559 175.084-7.33 239.098-25.019 61.978-17.126 97.77-41.211 98.198-66.079 0.381-22.138-26.759-44.443-76.421-62.807-50.083-18.518-119.823-31.722-196.374-37.18l0.427-5.984c77.101 5.496 147.428 18.827 198.027 37.537 52.994 19.595 80.774 43.294 80.339 68.537-0.484 28.126-36.921 53.61-102.599 71.759-59.725 16.505-137.404 25.41-220.548 25.411z" p-id="21153" fill="#1afa29"></path></svg>